<svg xmlns="http://www.w3.org/2000/svg" viewBox="0 0 250 350" font-family="'DejaVu Sans','Arial Unicode MS','Segoe UI Symbol',sans-serif">
  <rect x="4" y="4" width="242" height="342" rx="20" ry="20" fill="#fffdf7" stroke="#d8d2c4" stroke-width="2"/>
  <text x="125" y="170" font-size="116" font-weight="700" fill="#1f7a1f" text-anchor="middle">7</text>
  <g transform="translate(75 198)" fill="#1f7a1f"><path d="M50 5 C 50 25 90 40 90 62 C 90 74 81 82 70 82 C 64 82 58 79 54 74 C 55 84 60 92 68 96 L32 96 C 40 92 45 84 46 74 C 42 79 36 82 30 82 C 19 82 10 74 10 62 C 10 40 50 25 50 5 Z"/></g>
</svg>